<svg width="17" height="33" viewBox="0 0 17 33" fill="none" xmlns="http://www.w3.org/2000/svg">
<path d="M0.853554 0.853554C0.538572 0.538572 0 0.761654 0 1.20711V3.09458C0 3.22723 0.0527087 3.35444 0.146525 3.44821L12.8475 16.1435C13.0428 16.3388 13.0428 16.6554 12.8475 16.8507L0.146447 29.5518C0.0526789 29.6456 0 29.7728 0 29.9054V31.7926C0 32.2381 0.538659 32.4612 0.853616 32.1461L16.1437 16.8506C16.3389 16.6554 16.3388 16.3388 16.1436 16.1436L0.853554 0.853554Z" fill="#1F2325"/>
<path d="M0 11.2471V21.7473L5.25013 16.4972L0 11.2471Z" fill="#1F2325"/>
<path d="M0.853554 9.10209C0.538572 8.78711 0 9.01019 0 9.45564V11.0398C0 11.1724 0.0526784 11.2996 0.146447 11.3934L4.89658 16.1435C5.09184 16.3388 5.09184 16.6554 4.89658 16.8506L0.146447 21.6008C0.0526785 21.6945 0 21.8217 0 21.9543V23.5437C0 23.9893 0.538747 24.2123 0.853678 23.8972L7.89524 16.8506C8.09038 16.6553 8.09033 16.3389 7.89511 16.1436L0.853554 9.10209Z" fill="#1F2325"/>
</svg>
